<?xml version="1.0" encoding="utf-8"?>
<!-- Generator: Adobe Illustrator 17.0.0, SVG Export Plug-In . SVG Version: 6.00 Build 0)  -->
<!DOCTYPE svg PUBLIC "-//W3C//DTD SVG 1.1//EN" "http://www.w3.org/Graphics/SVG/1.1/DTD/svg11.dtd">
<svg version="1.1" id="Capa_1" xmlns="http://www.w3.org/2000/svg" xmlns:xlink="http://www.w3.org/1999/xlink" x="0px" y="0px"
	 width="50.707px" height="64px" viewBox="0 0 50.707 64" enable-background="new 0 0 50.707 64" xml:space="preserve">
<rect x="652.651" y="-1176.854" fill="#6EAA6F" width="2897.42" height="2879.424"/>
<rect x="-1863.587" y="-293.291" fill="#6EAA6F" width="1153.276" height="1146.113"/>
<g>
	<path d="M-1595.505,588.09c-14.633,9.454-29.204,15.589-45.151,18.501c-31.498,5.751-56.774-4.852-77.22-28.682
		c-17.649-20.569-28.378-44.831-37.484-69.978c-8.304-22.934-13.184-46.373-11.67-70.961c2.341-38.012,29.537-69.839,66.838-77.579
		c3.885-0.806,5.042-2.122,4.757-6.378c-3.125-46.584,1.768-92.32,14.96-137.164c15.004-51.005,39.17-97.206,72.704-138.411
		c44.103-54.191,98.613-94.421,163.413-120.655c57.014-23.081,116.284-32.546,177.607-29.058
		c41.886,2.382,82.483,11.128,121.664,26.191c47.02,18.076,89.417,43.796,126.48,77.944c11.848,10.916,22.681,22.947,33.756,34.678
		c2.672,2.83,4.399,3.533,7.942,1.123c13.949-9.49,29.65-14.605,46.277-16.643c30.453-3.732,53.934,9.757,72.196,32.283
		c27.712,34.182,45.422,73.252,51.012,117.183c5.07,39.843-13.356,74.745-48.393,91.197c-8.962,4.208-19.184,5.913-28.98,8.079
		c-3.907,0.864-4.72,2.127-4.571,5.913c2.306,58.449-7.349,114.843-29.961,168.847c-27.478,65.626-69.521,120.195-125.883,163.58
		c-50.868,39.156-107.844,65.096-170.997,76.939c-102.208,19.167-198.29,2.406-287.884-50.405
		c-32.976-19.438-62.227-43.654-88.118-71.877C-1593.474,591.379-1594.394,589.683-1595.505,588.09z M-900.543,323.567
		c-0.018-33.346-4.277-66.064-13.013-98.184c-25.303-93.027-78.03-166.882-157.949-220.277
		c-85.415-57.066-179.911-77.397-281.423-61.778c-81.175,12.49-151.989,47.448-211.552,104.11
		c-58.584,55.731-96.24,123.563-112.657,202.719c-11.974,57.734-10.501,115.5,4.689,172.534
		c20.706,77.747,61.59,143.1,123.063,195.181c70.532,59.756,152.555,90.211,244.609,93.307
		c52.278,1.758,103.001-7.309,151.989-25.97c56.594-21.559,106.001-54.035,147.152-98.352
		C-936.804,512.731-902.043,424.697-900.543,323.567z M-970.373,83.761c44.927,60.004,70.931,125.221,79.262,198.131
		c6.663-1.691,12.551-3.033,18.353-4.682c39.974-11.358,59.676-58.857,33.748-93.296c-14.678-19.496-24.396-42.186-30.196-66.019
		c-4.02-16.518-12.173-29.721-25.59-39.875c-9.87-7.469-20.743-13.236-33.264-9.603C-941.982,72.457-955.398,78.242-970.373,83.761z
		 M-1693.119,378.004c-23.652,4.43-40.783,16.842-49.315,38.956c-6.667,17.279-4.253,34.312,5.792,50.183
		c15.949,25.199,26.448,52.506,31.068,82.027c1.733,11.072,7.05,20.267,14.639,28.428c11.357,12.213,24.84,17.588,41.1,12.446
		c12.832-4.059,25.337-9.153,37.962-13.852c1.118-0.416,2.055-1.317,3.371-2.188
		C-1654.797,516.304-1682.843,451.148-1693.119,378.004z"/>
	<path d="M-1257.243-185.24c0.603-10.024-0.688-12.847-6.279-14.488c-6.088-1.787-13.908,1.337-16.835,6.725
		c-3.086,5.681-1.77,13.471,3.585,17.541c11.81,8.977,24.819,9.055,37.739,3.221c10.836-4.894,17.414-13.402,17.131-25.982
		c-0.211-9.376-4.374-16.725-11.67-22.483c-17.194-13.57-51.782-17.847-72.559,2.806c-14.797,14.709-18.288,42.266,2.55,56.896
		c9.735,6.835,20.603,12.086,31.09,17.813c8.328,4.548,17.411,7.918,25.183,13.236c16.36,11.195,14.4,30.115-3.711,38.171
		c-13.517,6.012-27.677,6.65-41.81,2.237c-3.066-0.958-6.283-3.113-8.209-5.646c-2.809-3.694-3.024-8.173,0.528-11.993
		c3.594-3.867,7.684-3.965,12.314-1.972c-5.187,11.434-1.388,17.662,10.935,17.472c7.089-0.109,14.637-0.711,21.117-3.271
		c11.188-4.418,12.071-14.968,2.388-22.091c-4.232-3.113-9.189-5.285-13.934-7.648c-12.248-6.098-24.865-11.521-36.789-18.19
		c-30.222-16.902-29.729-56.491-16.22-73.475c20.353-25.587,62.502-31.217,88.671-11.513c12.256,9.228,17.658,24.471,13.833,39.033
		c-3.247,12.365-16.915,23.684-31.067,25.154c-10.11,1.05-20.146,0.674-29.596-3.981c-9.544-4.701-14.64-12.777-13.744-22.256
		c0.848-8.976,8.014-16.803,18.142-18.776c8.846-1.724,17.51-1.008,24.729,5.352c3.758,3.311,4.335,7.675,2.624,12.021
		C-1248.737-187.189-1252.025-184.822-1257.243-185.24z"/>
	<path d="M-1145.292-145.392c3.228-3.977,5.349-7.886,1.109-11.425c-3.705-3.092-8.273-4.284-12.661-1.299
		c-4.135,2.813-5.928,6.835-4.28,11.911c2.598,8.001,14.97,15.385,24.993,14.913c10.585-0.499,17.871-6.261,20.179-16.126
		c1.934-8.266-1.802-14.8-6.689-20.917c-11.068-13.854-29.693-19.323-45.565-13.396c-16.06,5.996-23.176,24.344-14.014,38.825
		c6.977,11.028,15.685,20.951,23.427,31.509c2.327,3.174,4.589,6.628,5.849,10.307c3.02,8.811-2.047,17.25-11.242,18.81
		c-13.219,2.242-24.322-2.834-33.96-11.307c-4.162-3.659-4.231-9.239-1.154-12.215c2.972-2.874,6.349-2.53,10.302,1.05
		c-6.225,7.402-5.473,11.745,3.664,15.885c4.378,1.984,9.44,3.384,14.199,3.403c8.842,0.036,12.48-7.228,7.491-14.555
		c-3.623-5.32-8.108-10.05-12.164-15.079c-4.175-5.175-8.556-10.21-12.389-15.63c-9.82-13.887-9.938-30.307-0.647-44.378
		c7.635-11.563,24.077-17.71,39.521-14.523c12.465,2.572,23.354,8.135,31.158,18.487c8.695,11.533,8.679,25.728,0.356,35.252
		c-7.755,8.874-22.874,11.099-34.71,4.36c-4.832-2.751-9.313-6.591-12.983-10.785c-4.489-5.129-4.262-12.79-0.676-18.157
		c3.266-4.888,10.547-8.157,16.636-5.874c5.115,1.918,10.067,5.186,13.969,9.004c1.702,1.665,1.625,6.618,0.516,9.324
		C-1136.546-144.385-1140.444-143.735-1145.292-145.392z"/>
	<path d="M-1378.75-95.087c1.965,9.721,6.188,12.029,15.241,7.771c4.048-1.904,8.094-4.468,11.158-7.672
		c6.008-6.283,3.315-14.243-5.266-15.63c-6.16-0.995-12.514-0.782-18.779-1.142c-7.212-0.413-14.463-0.521-21.626-1.366
		c-17.407-2.053-27.905-12.762-32.312-28.874c-4.148-15.167,2.293-27.73,13.623-37.582c10.246-8.909,22.38-13.56,36.219-12.637
		c13.188,0.88,23.595,9.265,26.161,20.909c2.519,11.431-3.783,23.444-15.613,29.517c-7.103,3.646-14.615,5.643-22.597,3.874
		c-12.031-2.667-16.301-16.295-7.932-25.338c4.759-5.142,10.967-8.157,17.865-6.999c3.093,0.519,6.692,3.672,8.105,6.581
		c0.951,1.957-1.527,5.58-3.085,8.215c-5.828-8.809-13.163-9.824-17.544-2.68c-3.271,5.334-1.026,12.334,4.755,14.833
		c7.683,3.321,20.871-0.96,27.736-9.003c6.502-7.618,7.494-17.263,1.443-25.12c-2.723-3.536-6.991-6.686-11.204-8.133
		c-17.465-6.001-40.588,4.421-48.213,21.103c-8.017,17.543,0.733,35.869,19.678,39.366c10.597,1.956,21.568,1.871,32.368,2.745
		c3.981,0.322,8.009,0.456,11.918,1.192c13.444,2.532,18.197,15.381,9.449,25.831c-7.448,8.897-17.513,13.226-28.791,14.704
		c-5.146,0.674-10.091-2.93-10.079-7.116C-1386.059-92.334-1383.668-95.081-1378.75-95.087z"/>
	<path fill="#FFFFFF" d="M-900.543,323.567c-1.501,101.13-36.262,189.164-105.093,263.291
		c-41.151,44.317-90.557,76.794-147.152,98.352c-48.988,18.661-99.711,27.728-151.989,25.97
		c-92.053-3.096-174.077-33.55-244.609-93.307c-61.473-52.081-102.357-117.434-123.063-195.181
		c-15.19-57.035-16.663-114.801-4.689-172.534c16.417-79.156,54.073-146.989,112.657-202.719
		c59.563-56.662,130.377-91.62,211.552-104.11c101.512-15.619,196.008,4.712,281.423,61.778
		c79.919,53.394,132.646,127.249,157.949,220.277C-904.819,257.503-900.56,290.22-900.543,323.567z M-1300.344-55.251
		c-11.532,1.106-32.173,1.831-52.363,5.232c-101.088,17.029-184.242,65.237-246.796,146.734
		c-62.674,81.653-87.692,174.398-75.541,276.596c8.45,71.064,35.878,134.711,81.383,189.813
		c69.884,84.622,160.456,130.783,269.588,140.416c40.873,3.608,81.408,0.125,121.244-9.684
		c78.238-19.266,144.847-58.336,198.596-118.59c59.951-67.205,92.018-146.087,96.585-235.913
		c2.272-44.679-3.893-88.469-17.82-131.05c-23.004-70.335-63.04-129.202-120.352-175.946
		C-1117.19-25.85-1199.477-54.068-1300.344-55.251z"/>
	<path d="M-1300.344-55.251c100.866,1.183,183.154,29.401,254.523,87.609c57.313,46.744,97.349,105.611,120.352,175.946
		c13.926,42.581,20.091,86.371,17.82,131.05c-4.567,89.826-36.634,168.708-96.585,235.913
		c-53.75,60.254-120.358,99.324-198.596,118.59c-39.835,9.809-80.371,13.292-121.244,9.684
		c-109.132-9.633-199.703-55.794-269.588-140.416c-45.505-55.102-72.933-118.75-81.383-189.813
		c-12.152-102.199,12.867-194.943,75.541-276.596c62.554-81.497,145.709-129.705,246.796-146.734
		C-1332.516-53.42-1311.875-54.145-1300.344-55.251z M-1154.166,468.339c-0.378-0.017-0.756-0.034-1.134-0.051
		c-0.39-1.233-0.827-2.454-1.164-3.702c-15.669-57.963-31.326-115.929-46.996-173.892c-3.034-11.221-3.058-11.214-14.923-11.107
		c-7.029,0.063-8.102,1.03-8.104,7.792c-0.019,75.207-0.021,150.414-0.01,225.622c0.001,6.988,1.537,8.435,8.372,8.197
		c5.892-0.205,7.137-1.694,7.136-9.029c-0.013-58.071-0.053-116.142-0.084-174.213c-0.001-1.813,0-3.626,0-5.439
		c5.605,15.814,9.885,31.563,14.116,47.325c12.068,44.961,24.172,89.912,36.089,134.913c1.273,4.808,3.305,7.392,8.537,6.457
		c1.107-0.198,2.28-0.029,3.422-0.031c10.017-0.014,10.569-0.571,10.569-10.777c0.002-72.922,0.003-145.845,0.002-218.767
		c0-1.904-0.047-3.808-0.046-5.711c0.001-4.192-2.025-6.187-6.274-6.364c-7.81-0.325-9.49,1.13-9.491,8.92
		c-0.012,54.644-0.013,109.288-0.018,163.933C-1154.167,457.722-1154.166,463.03-1154.166,468.339z M-1026.837,521.215
		c8.09,0.089,10.109-1.742,9.14-7.776c-9.412-58.558-18.838-117.115-28.28-175.668c-2.906-18.02-5.79-36.045-8.964-54.018
		c-0.28-1.588-2.686-4.035-4.029-3.987c-5.786,0.207-11.547,1.174-17.298,1.993c-0.211,0.03-0.215,1.417-0.338,2.168
		c-4.168,25.516-8.368,51.026-12.503,76.547c-6.384,39.407-12.728,78.82-19.08,118.232c-1.875,11.636-3.702,23.279-5.588,34.913
		c-0.636,3.921,0.256,6.867,4.698,7.48c7.971,1.101,9.962,0.165,10.774-4.903c2.346-14.643,4.774-29.273,6.942-43.943
		c0.57-3.858,1.869-5.471,6.113-5.378c13.319,0.29,26.649,0.211,39.972,0.037c3.405-0.044,4.691,1.229,5.176,4.443
		c2.215,14.663,4.87,29.266,6.761,43.969C-1032.686,520.397-1030.639,521.903-1026.837,521.215z M-1473.369,400.804
		c0.043,0,0.087,0,0.13,0c0,27.983-0.416,55.974,0.136,83.947c0.418,21.182,18.606,36.776,40.969,36.368
		c20.032-0.365,37.534-17.778,37.569-37.762c0.098-55.208,0.097-110.417-0.05-165.625c-0.011-4.28-0.805-8.82-2.374-12.789
		c-7.152-18.093-25.563-28.338-43.925-24.887c-19.299,3.627-32.27,19.013-32.409,39.078
		C-1473.51,346.356-1473.369,373.58-1473.369,400.804z M-1573.747,400.261c0.012,0,0.024,0,0.036,0
		c0,27.613-0.15,55.228,0.048,82.84c0.153,21.455,18.075,38.205,40.203,38.032c21.21-0.166,38.535-17.388,38.651-38.476
		c0.06-10.855,0.061-21.71,0.033-32.564c-0.016-6.174-1.776-7.964-7.605-7.981c-6.233-0.018-8.081,1.762-8.13,8.107
		c-0.086,11.044,0.171,22.098-0.197,33.132c-0.413,12.388-11.2,22.34-23.66,22.393c-12.436,0.053-23.466-10.481-23.495-23.134
		c-0.128-55.036-0.255-110.074,0.245-165.106c0.048-5.24,3.446-11.315,7.055-15.468c6.667-7.673,16.019-8.699,25.168-5.049
		c9.435,3.764,14.67,11.203,14.77,21.673c0.102,10.664,0.025,21.329,0.126,31.993c0.057,6.054,1.946,7.845,7.838,7.833
		c6.399-0.013,7.818-1.348,7.892-7.562c0.048-3.999,0.069-7.999,0.01-11.997c-0.13-8.941,0.766-18.063-0.696-26.786
		c-3.546-21.16-22.182-34.553-43.505-32.406c-19.866,2-34.708,18.971-34.767,39.973
		C-1573.804,346.557-1573.747,373.409-1573.747,400.261z M-1369.064,400.088c0.009,0,0.018,0,0.026,0
		c0,27.412-0.036,54.823,0.012,82.235c0.037,21.183,17.271,38.579,38.307,38.782c22.711,0.219,40.176-16.16,40.524-38.183
		c0.174-11.038,0.092-22.081,0.047-33.122c-0.026-6.455-1.311-7.658-7.737-7.668c-6.017-0.01-7.734,1.643-7.781,7.74
		c-0.084,11.04,0.134,22.087-0.206,33.118c-0.387,12.596-11.668,23.076-23.958,22.744c-12.765-0.345-23.328-10.637-23.35-23.296
		c-0.097-54.633-0.1-109.266-0.015-163.899c0.021-13.293,10.403-23.226,23.719-23.202c13.279,0.024,23.463,9.988,23.646,23.36
		c0.149,10.848,0.139,21.7,0.047,32.548c-0.042,4.99,2.042,7.34,7.158,7.29c6.724-0.065,8.432-1.229,8.466-6.983
		c0.065-11.04,0.128-22.084-0.052-33.121c-0.368-22.579-17.552-38.977-40.487-38.814c-21.125,0.15-38.328,17.772-38.357,39.378
		C-1369.091,346.026-1369.064,373.057-1369.064,400.088z M-1268.79,400.237c0,37.515-0.022,75.029,0.019,112.544
		c0.008,7.155,1.384,8.43,8.292,8.406c5.746-0.02,7.464-1.847,7.465-8.16c0.011-75.029,0.011-150.058,0.001-225.087
		c-0.001-6.953-1.577-8.487-8.364-8.374c-6.111,0.102-7.38,1.452-7.389,8.699C-1268.809,325.589-1268.786,362.913-1268.79,400.237z
		 M-1319.048,194.597c0,16.54,0.13,33.081-0.086,49.618c-0.059,4.482,1.281,6.17,5.851,5.758c4.148-0.374,8.359,0.007,12.54-0.08
		c9.523-0.199,17.36-7.3,17.452-16.713c0.249-25.472,0.255-50.95,0.034-76.422c-0.088-10.172-7.653-17.223-17.933-17.563
		c-3.988-0.132-8,0.204-11.972-0.083c-4.465-0.322-6.012,1.361-5.958,5.867C-1318.92,161.516-1319.04,178.058-1319.048,194.597z
		 M-1419.771,193.961c0,16.756,0.116,33.514-0.078,50.268c-0.052,4.46,1.359,6.161,5.896,5.765c4.158-0.362,8.373-0.005,12.56-0.102
		c9.423-0.219,17.256-7.444,17.348-16.899c0.248-25.512,0.293-51.031,0.019-76.542c-0.105-9.804-7.857-16.872-17.757-17.238
		c-4.183-0.155-8.391,0.18-12.563-0.096c-4.368-0.289-5.54,1.612-5.498,5.717C-1419.678,161.208-1419.776,177.585-1419.771,193.961z
		 M-1058.615,249.604c0-2.724,0.331-5.202-0.05-7.566c-5.288-32.847-10.749-65.667-15.936-98.53
		c-0.613-3.882-2.392-4.409-5.686-4.428c-3.228-0.018-4.637,0.834-5.181,4.305c-5.177,33.069-10.579,66.102-15.83,99.16
		c-0.366,2.303-0.048,4.715-0.048,7.377c2.255-0.112,3.907-0.193,5.799-0.287c0.503-2.651,0.935-5.06,1.421-7.459
		c1.122-5.535,0.506-13.193,3.898-16.005c3.459-2.868,10.881-0.809,16.545-1.216c3.828-0.275,5.526,1.237,5.992,4.963
		c0.82,6.561,1.899,13.09,2.877,19.685C-1062.509,249.604-1060.705,249.604-1058.615,249.604z M-1329.911,249.596
		c0-2.133,0.253-4.011-0.037-5.801c-5.409-33.401-10.939-66.782-16.254-100.198c-0.524-3.295-1.591-4.277-4.933-4.594
		c-5-0.474-5.466,2.335-6.05,6.015c-5.208,32.847-10.498,65.681-15.828,98.508c-1.033,6.361-0.625,6.866,6.201,5.727
		c1.239-7.748,2.492-15.591,3.859-24.14c6.893,0,13.7-0.179,20.479,0.185c1.071,0.058,2.602,2.451,2.908,3.968
		c1.346,6.679,2.32,13.432,3.457,20.33C-1333.93,249.596-1332.125,249.596-1329.911,249.596z M-1431.705,188.82
		c-0.011,0-0.023,0-0.034,0c0-14.84-0.009-29.681,0.009-44.521c0.003-2.597,0.062-5.174-3.611-5.113
		c-3.704,0.061-3.434,2.722-3.432,5.258c0.011,13.128-0.007,26.256-0.011,39.384c-0.005,15.792,0.068,31.584-0.044,47.375
		c-0.055,7.668-4.429,11.697-11.813,11.322c-6.509-0.331-10.07-4.627-10.086-12.602c-0.057-28.349-0.022-56.698-0.045-85.046
		c-0.002-2.586,0.575-6.13-3.513-5.446c-1.366,0.229-3.192,3.362-3.205,5.179c-0.21,28.728-0.241,57.458-0.128,86.186
		c0.046,11.623,7.422,19.183,18.066,19.082c10.469-0.099,17.783-7.982,17.834-19.39
		C-1431.658,216.599-1431.705,202.709-1431.705,188.82z M-1214.424,230.493c-0.393,0.039-0.785,0.079-1.178,0.118
		c-2.827-17.439-5.667-34.876-8.477-52.318c-1.906-11.828-3.662-23.682-5.794-35.468c-0.253-1.398-2.458-2.444-3.758-3.652
		c-1.049,1.413-2.566,2.695-3.013,4.278c-0.432,1.528,0.163,3.381,0.439,5.069c3.738,22.9,7.498,45.797,11.253,68.695
		c1.775,10.825,3.549,21.651,5.31,32.396c3.396,0,6.182,0,9.199,0c1.602-9.646,3.175-19.007,4.709-28.374
		c1.567-9.565,3.094-19.136,4.641-28.704c2.581-15.952,5.19-31.9,7.721-47.86c0.385-2.428,0.896-5.597-2.9-5.281
		c-1.43,0.119-3.563,2.429-3.847,4.013c-2.782,15.536-5.252,31.128-7.787,46.708
		C-1210.095,203.571-1212.253,217.033-1214.424,230.493z M-1532.973,194.409c-0.026,0-0.052,0-0.078,0
		c0,12.362,0.003,24.724-0.001,37.086c-0.004,9.938,7.562,18.062,17.142,18.395c10.313,0.359,18.218-6.732,18.789-17.121
		c0.26-4.74,0.326-9.532-0.102-14.248c-0.154-1.689-2.021-3.223-3.107-4.827c-1.197,1.732-3.152,3.351-3.43,5.219
		c-0.553,3.724-0.125,7.586-0.21,11.388c-0.175,7.864-4.208,12.305-11.085,12.311c-6.775,0.006-11.014-4.572-11.04-12.416
		c-0.079-23.775-0.086-47.551,0.01-71.326c0.031-7.76,4.307-12.243,11.195-12.304c6.767-0.06,10.765,4.448,10.914,12.403
		c0.082,4.373-0.165,8.768,0.221,13.11c0.099,1.109,1.918,2.606,3.18,2.892c0.937,0.212,3.274-1.3,3.241-1.956
		c-0.404-8.075,0.046-16.465-2.11-24.101c-2.058-7.287-11.636-10.999-18.839-9.421c-8.977,1.966-14.494,8.647-14.646,18.399
		C-1533.118,170.061-1532.973,182.236-1532.973,194.409z M-1158.16,189.066c0-13.621-0.087-26.513,0.151-39.398
		c0.021-1.141,2.066-3.042,3.35-3.208c3.558-0.46,7.211-0.139,10.824-0.223c2.708-0.063,6.226,0.928,6.161-3.662
		c-0.059-4.19-3.349-3.36-5.869-3.401c-5.136-0.082-10.294,0.266-15.407-0.089c-4.939-0.343-6.605,1.297-6.572,6.403
		c0.21,32.538,0.105,65.077,0.149,97.616c0.003,2.183,0.379,4.366,0.582,6.546c9.138,0,17.646,0,26.077,0
		c1.635-6.236,1.417-6.617-4.336-6.83c-3.421-0.126-6.865-0.27-10.269-0.011c-3.836,0.291-4.977-1.325-4.908-4.961
		c0.165-8.75,0.042-17.505,0.037-26.258c-0.003-5.039,0-10.078,0-15.459c4.527,0,8.168,0.354,11.685-0.153
		c1.699-0.245,3.164-2.111,4.735-3.242c-1.52-1.223-2.922-3.26-4.585-3.503C-1150.025,188.697-1153.826,189.066-1158.16,189.066z
		 M-1177.951,249.667c0.162-2.835,0.399-5.091,0.404-7.347c0.044-23.763,0.053-47.527,0.066-71.29
		c0.005-8.935-0.042-17.87,0.009-26.805c0.016-2.71-0.218-5.092-3.744-5.032c-3.573,0.06-3.658,2.589-3.556,5.206
		c0.007,0.19,0,0.38,0,0.57c0.006,32.889,0.002,65.778,0.039,98.667c0.002,1.992,0.327,3.984,0.506,6.031
		C-1181.957,249.667-1180.295,249.667-1177.951,249.667z M-1110.969,187.96c0.011,0,0.021,0,0.032,0
		c0-14.664,0.105-29.329-0.149-43.988c-0.028-1.613-2.119-3.191-3.253-4.785c-1.212,1.501-2.633,2.887-3.55,4.55
		c-0.484,0.877-0.093,2.238-0.093,3.381c-0.013,27.423,0.007,54.846-0.059,82.269c-0.019,7.927-1.955,11.213-8.457,13.066
		c-3.445,0.981-4.749,2.873-3.355,5.591c0.574,1.12,3.917,1.65,5.672,1.192c8.045-2.101,13.037-8.81,13.16-17.856
		C-1110.824,216.908-1110.969,202.433-1110.969,187.96z M-1486.537,249.333c5.086,1.552,6.507-0.205,6.497-4.53
		c-0.083-33.453-0.024-66.907-0.014-100.36c0-0.949,0.302-2.188-0.173-2.784c-0.824-1.035-2.148-2.302-3.261-2.3
		c-1.123,0.001-2.549,1.221-3.268,2.293c-0.536,0.799-0.185,2.212-0.185,3.352c-0.004,32.883-0.009,65.767,0.015,98.65
		C-1486.925,245.516-1486.677,247.38-1486.537,249.333z"/>
	<path fill="#FFFFFF" d="M-1154.166,468.339c0-5.308,0-10.617,0-15.925c0.005-54.644,0.006-109.288,0.018-163.933
		c0.002-7.79,1.681-9.244,9.491-8.92c4.249,0.177,6.275,2.172,6.274,6.364c0,1.904,0.046,3.808,0.046,5.711
		c0.002,72.922,0.001,145.845-0.002,218.767c0,10.205-0.552,10.763-10.569,10.777c-1.142,0.002-2.315-0.167-3.422,0.031
		c-5.232,0.935-7.264-1.648-8.537-6.457c-11.917-45.001-24.021-89.952-36.089-134.913c-4.231-15.762-8.511-31.511-14.116-47.325
		c0,1.813-0.001,3.626,0,5.439c0.031,58.071,0.072,116.142,0.084,174.213c0.002,7.335-1.243,8.824-7.136,9.029
		c-6.835,0.237-8.371-1.209-8.372-8.197c-0.011-75.207-0.009-150.414,0.01-225.622c0.002-6.762,1.075-7.728,8.104-7.792
		c11.865-0.107,11.889-0.114,14.923,11.107c15.671,57.963,31.327,115.929,46.996,173.892c0.337,1.248,0.774,2.468,1.164,3.702
		C-1154.922,468.305-1154.544,468.322-1154.166,468.339z"/>
	<path fill="#FFFFFF" d="M-1026.837,521.215c-3.803,0.688-5.85-0.817-6.502-5.892c-1.89-14.703-4.546-29.306-6.761-43.969
		c-0.486-3.214-1.771-4.487-5.176-4.443c-13.323,0.174-26.653,0.253-39.972-0.037c-4.244-0.092-5.543,1.521-6.113,5.378
		c-2.168,14.669-4.596,29.3-6.942,43.943c-0.812,5.068-2.804,6.004-10.774,4.903c-4.443-0.613-5.334-3.559-4.698-7.48
		c1.886-11.634,3.712-23.277,5.588-34.913c6.352-39.412,12.696-78.825,19.08-118.232c4.135-25.521,8.335-51.031,12.503-76.547
		c0.123-0.751,0.127-2.138,0.338-2.168c5.751-0.82,11.512-1.786,17.298-1.993c1.343-0.048,3.748,2.399,4.029,3.987
		c3.174,17.973,6.058,35.998,8.964,54.018c9.443,58.554,18.868,117.11,28.28,175.668
		C-1016.727,519.473-1018.746,521.304-1026.837,521.215z M-1065.058,318.76c-0.424,0.019-0.848,0.039-1.272,0.058
		c-7.054,43.853-14.108,87.707-21.242,132.056c14.869,0,29.034,0,43.824,0C-1050.889,406.607-1057.973,362.684-1065.058,318.76z"/>
	<path fill="#FFFFFF" d="M-1473.369,400.804c0-27.223-0.141-54.448,0.047-81.67c0.139-20.065,13.11-35.451,32.409-39.078
		c18.362-3.451,36.773,6.794,43.925,24.887c1.569,3.969,2.362,8.509,2.374,12.789c0.147,55.208,0.147,110.417,0.05,165.625
		c-0.035,19.984-17.537,37.397-37.569,37.762c-22.362,0.408-40.551-15.187-40.969-36.368c-0.552-27.972-0.136-55.963-0.136-83.947
		C-1473.282,400.804-1473.325,400.804-1473.369,400.804z M-1410.192,400.816c0-26.838,0.026-53.676-0.01-80.514
		c-0.019-14.511-9.574-24.749-23.168-24.962c-14.101-0.22-24.338,9.79-24.39,24.381c-0.154,43.016-0.141,86.032-0.166,129.048
		c-0.006,11.229-0.193,22.469,0.207,33.685c0.472,13.237,11.414,23.562,24.053,23.291c13.001-0.279,23.43-11.045,23.458-24.416
		C-1410.152,454.492-1410.191,427.654-1410.192,400.816z"/>
	<path fill="#FFFFFF" d="M-1573.747,400.261c0-26.852-0.057-53.704,0.018-80.555c0.059-21.002,14.901-37.973,34.767-39.973
		c21.323-2.147,39.958,11.246,43.505,32.406c1.462,8.723,0.566,17.845,0.696,26.786c0.058,3.998,0.038,7.999-0.01,11.997
		c-0.075,6.213-1.493,7.549-7.892,7.562c-5.892,0.012-7.78-1.779-7.838-7.833c-0.101-10.664-0.024-21.329-0.126-31.993
		c-0.1-10.47-5.336-17.909-14.77-21.673c-9.149-3.65-18.501-2.624-25.168,5.049c-3.609,4.153-7.007,10.229-7.055,15.468
		c-0.5,55.032-0.373,110.07-0.245,165.106c0.029,12.653,11.059,23.188,23.495,23.134c12.46-0.054,23.247-10.006,23.66-22.393
		c0.368-11.034,0.112-22.087,0.197-33.132c0.049-6.345,1.898-8.125,8.13-8.107c5.829,0.017,7.589,1.807,7.605,7.981
		c0.029,10.855,0.027,21.71-0.033,32.564c-0.116,21.088-17.44,38.31-38.651,38.476c-22.128,0.173-40.049-16.577-40.203-38.032
		c-0.198-27.612-0.048-55.226-0.048-82.84C-1573.723,400.261-1573.735,400.261-1573.747,400.261z"/>
	<path fill="#FFFFFF" d="M-1369.064,400.088c0-27.031-0.027-54.062,0.009-81.093c0.029-21.606,17.232-39.228,38.357-39.378
		c22.935-0.162,40.119,16.235,40.487,38.814c0.18,11.038,0.117,22.081,0.052,33.121c-0.034,5.754-1.742,6.918-8.466,6.983
		c-5.116,0.049-7.2-2.3-7.158-7.29c0.093-10.849,0.102-21.7-0.047-32.548c-0.183-13.372-10.367-23.337-23.646-23.36
		c-13.316-0.024-23.699,9.909-23.719,23.202c-0.085,54.633-0.082,109.266,0.015,163.899c0.022,12.66,10.585,22.951,23.35,23.296
		c12.291,0.332,23.571-10.148,23.958-22.744c0.339-11.031,0.121-22.079,0.206-33.118c0.047-6.097,1.763-7.75,7.781-7.74
		c6.426,0.011,7.711,1.213,7.737,7.668c0.045,11.041,0.127,22.084-0.047,33.122c-0.348,22.023-17.813,38.402-40.524,38.183
		c-21.036-0.203-38.27-17.599-38.307-38.782c-0.047-27.412-0.012-54.823-0.012-82.235
		C-1369.046,400.088-1369.055,400.088-1369.064,400.088z"/>
	<path fill="#FFFFFF" d="M-1268.788,400.237c0.002-37.324-0.021-74.648,0.022-111.972c0.008-7.246,1.277-8.596,7.389-8.699
		c6.787-0.114,8.363,1.42,8.364,8.374c0.01,75.029,0.01,150.058-0.001,225.087c-0.001,6.313-1.719,8.14-7.465,8.16
		c-6.907,0.024-8.284-1.251-8.292-8.406C-1268.812,475.266-1268.79,437.752-1268.788,400.237z"/>
	<path fill="#FFFFFF" d="M-1319.044,194.597c0.004-16.54,0.124-33.081-0.076-49.618c-0.054-4.505,1.492-6.188,5.958-5.867
		c3.972,0.286,7.984-0.049,11.972,0.083c10.28,0.34,17.845,7.391,17.933,17.563c0.22,25.473,0.215,50.95-0.034,76.422
		c-0.092,9.413-7.929,16.514-17.452,16.713c-4.181,0.087-8.391-0.294-12.54,0.08c-4.57,0.412-5.91-1.276-5.851-5.758
		C-1318.917,227.678-1319.048,211.137-1319.044,194.597z M-1312.079,242.666c4.278,0,7.664,0.134,11.035-0.028
		c7.033-0.337,10.85-4.174,10.875-11.223c0.087-24.529,0.099-49.058,0.029-73.587c-0.02-7.055-4.294-11.2-11.384-11.496
		c-1.519-0.064-3.066,0.145-4.559-0.067c-4.775-0.676-6.131,1.317-6.094,6.034c0.204,25.668,0.097,51.339,0.097,77.009
		C-1312.079,233.471-1312.079,237.633-1312.079,242.666z"/>
	<path fill="#FFFFFF" d="M-1419.773,193.961c-0.002-16.376,0.096-32.752-0.071-49.126c-0.042-4.106,1.13-6.007,5.498-5.717
		c4.171,0.276,8.379-0.058,12.563,0.096c9.9,0.366,17.652,7.434,17.757,17.238c0.274,25.512,0.229,51.03-0.019,76.542
		c-0.092,9.454-7.925,16.68-17.348,16.899c-4.187,0.097-8.402-0.26-12.56,0.102c-4.538,0.395-5.948-1.306-5.896-5.765
		C-1419.655,227.475-1419.771,210.717-1419.773,193.961z M-1412.897,194.462c0,12.929-0.058,25.858,0.018,38.786
		c0.064,10.896-1.527,9.417,9.862,9.404c7.763-0.009,12.103-3.996,12.13-11.226c0.09-24.526,0.086-49.053,0.005-73.579
		c-0.022-6.617-4.395-11.053-10.927-11.487c-2.083-0.138-4.202,0.136-6.268-0.099c-3.794-0.431-4.932,1.135-4.888,4.853
		C-1412.795,165.561-1412.896,180.012-1412.897,194.462z"/>
	<path fill="#FFFFFF" d="M-1058.615,249.604c-2.09,0-3.894,0-6.198,0c-0.978-6.596-2.057-13.124-2.877-19.685
		c-0.466-3.726-2.164-5.238-5.992-4.963c-5.664,0.407-13.086-1.652-16.545,1.216c-3.392,2.812-2.776,10.47-3.898,16.005
		c-0.486,2.398-0.918,4.808-1.421,7.459c-1.892,0.094-3.544,0.175-5.799,0.287c0-2.662-0.318-5.074,0.048-7.377
		c5.251-33.057,10.653-66.091,15.83-99.16c0.543-3.471,1.952-4.323,5.181-4.305c3.294,0.018,5.073,0.545,5.686,4.428
		c5.187,32.863,10.648,65.683,15.936,98.53C-1058.284,244.402-1058.615,246.88-1058.615,249.604z M-1079.31,159.082
		c-0.463-0.021-0.926-0.043-1.39-0.064c-3.111,19.355-6.222,38.711-9.42,58.611c6.869,0,13.001,0,20.113,0
		C-1073.144,197.885-1076.227,178.483-1079.31,159.082z"/>
	<path fill="#FFFFFF" d="M-1329.911,249.596c-2.214,0-4.02,0-6.199,0c-1.137-6.898-2.111-13.651-3.457-20.33
		c-0.306-1.517-1.837-3.911-2.908-3.968c-6.778-0.364-13.586-0.185-20.479-0.185c-1.367,8.549-2.62,16.392-3.859,24.14
		c-6.826,1.139-7.234,0.634-6.201-5.727c5.33-32.827,10.62-65.661,15.828-98.508c0.583-3.68,1.049-6.489,6.05-6.015
		c3.342,0.317,4.408,1.299,4.933,4.594c5.315,33.416,10.845,66.797,16.254,100.198
		C-1329.658,245.585-1329.911,247.463-1329.911,249.596z M-1361.741,218.038c6.553,0,11.85,0.198,17.105-0.176
		c0.992-0.071,2.76-2.562,2.586-3.694c-2.811-18.378-5.878-36.718-8.886-55.066c-0.401-0.026-0.803-0.052-1.204-0.078
		C-1355.283,178.346-1358.427,197.667-1361.741,218.038z"/>
	<path fill="#FFFFFF" d="M-1431.705,188.82c0,13.889,0.047,27.778-0.015,41.667c-0.051,11.408-7.365,19.291-17.834,19.39
		c-10.644,0.101-18.02-7.459-18.066-19.082c-0.113-28.729-0.082-57.459,0.128-86.186c0.013-1.817,1.839-4.95,3.205-5.179
		c4.088-0.684,3.511,2.861,3.513,5.446c0.023,28.349-0.012,56.698,0.045,85.046c0.016,7.975,3.578,12.271,10.086,12.602
		c7.384,0.375,11.758-3.655,11.813-11.322c0.113-15.791,0.039-31.583,0.044-47.375c0.005-13.128,0.022-26.256,0.011-39.384
		c-0.002-2.535-0.272-5.196,3.432-5.258c3.674-0.061,3.615,2.516,3.611,5.113c-0.018,14.84-0.009,29.681-0.009,44.521
		C-1431.728,188.82-1431.717,188.82-1431.705,188.82z"/>
	<path fill="#FFFFFF" d="M-1214.424,230.493c2.172-13.46,4.329-26.922,6.518-40.378c2.535-15.58,5.005-31.172,7.787-46.708
		c0.284-1.585,2.417-3.894,3.847-4.013c3.796-0.317,3.285,2.852,2.9,5.281c-2.53,15.96-5.14,31.908-7.721,47.86
		c-1.548,9.568-3.075,19.14-4.641,28.704c-1.534,9.367-3.107,18.728-4.709,28.374c-3.016,0-5.803,0-9.199,0
		c-1.761-10.746-3.535-21.571-5.31-32.396c-3.755-22.898-7.515-45.794-11.253-68.695c-0.276-1.689-0.871-3.541-0.439-5.069
		c0.447-1.583,1.964-2.865,3.013-4.278c1.3,1.209,3.505,2.254,3.758,3.652c2.132,11.786,3.888,23.64,5.794,35.468
		c2.81,17.442,5.65,34.879,8.477,52.318C-1215.209,230.572-1214.817,230.532-1214.424,230.493z"/>
	<path fill="#FFFFFF" d="M-1532.973,194.409c0-12.173-0.144-24.348,0.046-36.518c0.152-9.752,5.669-16.433,14.646-18.399
		c7.203-1.578,16.781,2.134,18.839,9.421c2.156,7.636,1.707,16.026,2.11,24.101c0.033,0.656-2.305,2.168-3.241,1.956
		c-1.262-0.285-3.082-1.783-3.18-2.892c-0.386-4.342-0.14-8.737-0.221-13.11c-0.149-7.955-4.147-12.463-10.914-12.403
		c-6.889,0.061-11.164,4.544-11.195,12.304c-0.095,23.775-0.089,47.551-0.01,71.326c0.026,7.843,4.265,12.421,11.04,12.416
		c6.877-0.006,10.909-4.446,11.085-12.311c0.085-3.802-0.343-7.664,0.21-11.388c0.278-1.868,2.233-3.487,3.43-5.219
		c1.085,1.604,2.953,3.138,3.107,4.827c0.429,4.716,0.363,9.508,0.102,14.248c-0.571,10.389-8.476,17.48-18.789,17.121
		c-9.58-0.333-17.146-8.457-17.142-18.395c0.004-12.362,0.001-24.724,0.001-37.086
		C-1533.025,194.409-1532.999,194.409-1532.973,194.409z"/>
	<path fill="#FFFFFF" d="M-1158.16,189.066c4.333,0,8.135-0.369,11.804,0.166c1.663,0.243,3.065,2.28,4.585,3.503
		c-1.571,1.132-3.036,2.997-4.735,3.242c-3.517,0.507-7.158,0.153-11.685,0.153c0,5.381-0.002,10.42,0,15.459
		c0.005,8.753,0.128,17.508-0.037,26.258c-0.068,3.637,1.073,5.253,4.908,4.961c3.404-0.259,6.848-0.115,10.269,0.011
		c5.753,0.213,5.971,0.594,4.336,6.83c-8.431,0-16.939,0-26.077,0c-0.202-2.18-0.579-4.363-0.582-6.546
		c-0.044-32.539,0.061-65.078-0.149-97.616c-0.033-5.106,1.633-6.746,6.572-6.403c5.113,0.355,10.271,0.006,15.407,0.089
		c2.52,0.04,5.81-0.789,5.869,3.401c0.064,4.59-3.454,3.599-6.161,3.662c-3.613,0.084-7.266-0.237-10.824,0.223
		c-1.284,0.166-3.329,2.068-3.35,3.208C-1158.247,162.554-1158.16,175.445-1158.16,189.066z"/>
	<path fill="#FFFFFF" d="M-1177.951,249.667c-2.344,0-4.006,0-6.277,0c-0.179-2.047-0.504-4.039-0.506-6.031
		c-0.037-32.889-0.034-65.778-0.039-98.667c0-0.19,0.008-0.38,0-0.57c-0.102-2.617-0.016-5.146,3.556-5.206
		c3.526-0.06,3.76,2.322,3.744,5.032c-0.051,8.935-0.004,17.87-0.009,26.805c-0.012,23.763-0.022,47.527-0.066,71.29
		C-1177.551,244.576-1177.789,246.832-1177.951,249.667z"/>
	<path fill="#FFFFFF" d="M-1110.969,187.96c0,14.473,0.144,28.948-0.053,43.418c-0.123,9.046-5.115,15.755-13.16,17.856
		c-1.755,0.458-5.098-0.072-5.672-1.192c-1.394-2.718-0.09-4.609,3.355-5.591c6.501-1.852,8.438-5.139,8.457-13.066
		c0.066-27.423,0.046-54.846,0.059-82.269c0-1.143-0.391-2.504,0.093-3.381c0.918-1.663,2.339-3.049,3.55-4.55
		c1.134,1.594,3.225,3.172,3.253,4.785c0.255,14.659,0.149,29.325,0.149,43.988C-1110.948,187.96-1110.958,187.96-1110.969,187.96z"
		/>
	<path fill="#FFFFFF" d="M-1486.537,249.333c-0.14-1.953-0.388-3.817-0.389-5.681c-0.024-32.883-0.019-65.767-0.015-98.65
		c0-1.14-0.352-2.552,0.185-3.352c0.719-1.071,2.145-2.292,3.268-2.293c1.113-0.001,2.436,1.266,3.261,2.3
		c0.475,0.597,0.173,1.835,0.173,2.784c-0.01,33.453-0.069,66.907,0.014,100.36C-1480.03,249.128-1481.451,250.885-1486.537,249.333
		z"/>
	<path d="M-1065.058,318.76c7.085,43.924,14.169,87.847,21.309,132.115c-14.79,0-28.955,0-43.824,0
		c7.134-44.35,14.188-88.203,21.242-132.056C-1065.906,318.799-1065.482,318.779-1065.058,318.76z"/>
	<path d="M-1410.192,400.816c0,26.838,0.039,53.676-0.016,80.514c-0.028,13.371-10.457,24.136-23.458,24.416
		c-12.639,0.272-23.581-10.054-24.053-23.291c-0.4-11.217-0.214-22.456-0.207-33.685c0.025-43.016,0.013-86.032,0.166-129.048
		c0.052-14.591,10.288-24.601,24.39-24.381c13.594,0.212,23.148,10.45,23.168,24.962
		C-1410.166,347.14-1410.192,373.978-1410.192,400.816z"/>
	<path d="M-1312.079,242.666c0-5.034,0-9.196,0-13.358c0-25.67,0.107-51.341-0.097-77.009c-0.037-4.717,1.318-6.71,6.094-6.034
		c1.493,0.211,3.04,0.003,4.559,0.067c7.09,0.297,11.364,4.441,11.384,11.496c0.07,24.529,0.057,49.058-0.029,73.587
		c-0.025,7.049-3.842,10.886-10.875,11.223C-1304.415,242.8-1307.801,242.666-1312.079,242.666z"/>
	<path d="M-1412.896,194.462c0-14.45,0.101-28.901-0.068-43.348c-0.044-3.718,1.094-5.284,4.888-4.853
		c2.066,0.235,4.185-0.039,6.268,0.099c6.532,0.434,10.905,4.869,10.927,11.487c0.081,24.526,0.085,49.053-0.005,73.579
		c-0.027,7.23-4.366,11.217-12.13,11.226c-11.389,0.014-9.798,1.492-9.862-9.404
		C-1412.955,220.319-1412.897,207.39-1412.896,194.462z"/>
	<path d="M-1079.31,159.082c3.083,19.401,6.166,38.803,9.303,58.547c-7.112,0-13.244,0-20.113,0
		c3.198-19.901,6.309-39.256,9.42-58.611C-1080.236,159.039-1079.773,159.061-1079.31,159.082z"/>
	<path d="M-1361.741,218.038c3.314-20.371,6.458-39.693,9.601-59.014c0.401,0.026,0.803,0.052,1.204,0.078
		c3.009,18.348,6.075,36.687,8.886,55.066c0.173,1.132-1.594,3.624-2.586,3.694
		C-1349.891,218.237-1355.188,218.038-1361.741,218.038z"/>
</g>
<g>
	<path fill-rule="evenodd" clip-rule="evenodd" fill="#336535" d="M42.759,20.252C38.988,10.148,27.358,5.517,17.54,9.938
		C7.724,14.323,3.704,25.76,8.843,35.442c2.223,4.177,4.909,8.35,7.363,12.735c2.899,5.053,5.816,10.14,9.158,15.823
		c0.428-0.876,0.676-1.298,0.89-1.754c5.121-8.77,10.492-17.786,15.615-26.804C44.555,30.601,44.787,25.55,42.759,20.252
		L42.759,20.252z M25.147,38.477L25.147,38.477c-7.407,0-13.617-6.111-13.617-13.606c0-7.493,6.21-13.635,13.617-13.635
		c7.615,0,13.825,6.141,13.825,13.635C38.971,32.366,32.761,38.477,25.147,38.477L25.147,38.477z"/>
</g>
<g>
	<path d="M11.027,38.85c-0.679,0.439-1.356,0.724-2.096,0.859c-1.462,0.267-2.636-0.225-3.585-1.332
		c-0.819-0.955-1.318-2.082-1.74-3.249c-0.386-1.065-0.612-2.153-0.542-3.295c0.109-1.765,1.371-3.243,3.103-3.602
		c0.18-0.037,0.234-0.099,0.221-0.296c-0.145-2.163,0.082-4.286,0.695-6.369c0.697-2.368,1.819-4.513,3.376-6.426
		c2.048-2.516,4.579-4.384,7.587-5.602c2.647-1.072,5.399-1.511,8.246-1.349c1.945,0.111,3.83,0.517,5.649,1.216
		c2.183,0.839,4.152,2.033,5.872,3.619c0.55,0.507,1.053,1.065,1.567,1.61c0.124,0.131,0.204,0.164,0.369,0.052
		c0.648-0.441,1.377-0.678,2.149-0.773c1.414-0.173,2.504,0.453,3.352,1.499c1.287,1.587,2.109,3.401,2.369,5.441
		c0.235,1.85-0.62,3.47-2.247,4.234c-0.416,0.195-0.891,0.275-1.346,0.375c-0.181,0.04-0.219,0.099-0.212,0.275
		c0.107,2.714-0.341,5.332-1.391,7.84c-1.276,3.047-3.228,5.581-5.845,7.595c-2.362,1.818-5.007,3.022-7.939,3.572
		c-4.746,0.89-9.207,0.112-13.367-2.34c-1.531-0.903-2.889-2.027-4.091-3.337C11.121,39.002,11.079,38.924,11.027,38.85z
		 M43.294,26.568c-0.001-1.548-0.199-3.067-0.604-4.559c-1.175-4.319-3.623-7.748-7.334-10.228
		c-3.966-2.65-8.353-3.594-13.067-2.868c-3.769,0.58-7.057,2.203-9.822,4.834c-2.72,2.588-4.468,5.737-5.231,9.412
		c-0.556,2.681-0.488,5.363,0.218,8.011c0.961,3.61,2.86,6.644,5.714,9.062c3.275,2.775,7.083,4.189,11.357,4.332
		c2.427,0.082,4.782-0.339,7.057-1.206c2.628-1.001,4.922-2.509,6.832-4.567C41.611,35.351,43.225,31.263,43.294,26.568z
		 M40.052,15.434c2.086,2.786,3.293,5.814,3.68,9.199c0.309-0.079,0.583-0.141,0.852-0.217c1.856-0.527,2.771-2.733,1.567-4.332
		c-0.682-0.905-1.133-1.959-1.402-3.065c-0.187-0.767-0.565-1.38-1.188-1.851c-0.458-0.347-0.963-0.615-1.544-0.446
		C41.37,14.909,40.747,15.177,40.052,15.434z M6.495,29.095c-1.098,0.206-1.894,0.782-2.29,1.809
		c-0.31,0.802-0.197,1.593,0.269,2.33c0.741,1.17,1.228,2.438,1.443,3.809c0.08,0.514,0.327,0.941,0.68,1.32
		c0.527,0.567,1.153,0.817,1.908,0.578c0.596-0.188,1.176-0.425,1.763-0.643c0.052-0.019,0.095-0.061,0.157-0.102
		C8.274,35.517,6.972,32.491,6.495,29.095z"/>
	<path d="M26.733,2.944c0.028-0.465-0.032-0.596-0.292-0.673c-0.283-0.083-0.646,0.062-0.782,0.312
		c-0.143,0.264-0.082,0.625,0.166,0.814c0.548,0.417,1.152,0.42,1.752,0.15c0.503-0.227,0.809-0.622,0.795-1.206
		c-0.01-0.435-0.203-0.777-0.542-1.044c-0.798-0.63-2.404-0.829-3.369,0.13c-0.687,0.683-0.849,1.962,0.118,2.642
		c0.452,0.317,0.957,0.561,1.444,0.827c0.387,0.211,0.808,0.368,1.169,0.615c0.76,0.52,0.669,1.398-0.172,1.772
		c-0.628,0.279-1.285,0.309-1.941,0.104c-0.142-0.044-0.292-0.145-0.381-0.262c-0.13-0.172-0.14-0.379,0.024-0.557
		c0.167-0.18,0.357-0.184,0.572-0.092c-0.241,0.531-0.064,0.82,0.508,0.811c0.329-0.005,0.68-0.033,0.98-0.152
		c0.519-0.205,0.56-0.695,0.111-1.026c-0.196-0.145-0.427-0.245-0.647-0.355c-0.569-0.283-1.154-0.535-1.708-0.845
		c-1.403-0.785-1.38-2.623-0.753-3.411c0.945-1.188,2.902-1.449,4.117-0.535c0.569,0.428,0.82,1.136,0.642,1.812
		c-0.151,0.574-0.785,1.1-1.442,1.168c-0.469,0.049-0.935,0.031-1.374-0.185c-0.443-0.218-0.68-0.593-0.638-1.033
		c0.039-0.417,0.372-0.78,0.842-0.872c0.411-0.08,0.813-0.047,1.148,0.248c0.174,0.154,0.201,0.356,0.122,0.558
		C27.128,2.853,26.975,2.963,26.733,2.944z"/>
	<path d="M31.931,4.794c0.15-0.185,0.248-0.366,0.051-0.53c-0.172-0.144-0.384-0.199-0.588-0.06
		c-0.192,0.131-0.275,0.317-0.199,0.553c0.121,0.371,0.695,0.714,1.16,0.692c0.491-0.023,0.83-0.291,0.937-0.749
		c0.09-0.384-0.084-0.687-0.311-0.971c-0.514-0.643-1.379-0.897-2.116-0.622c-0.746,0.278-1.076,1.13-0.651,1.803
		c0.324,0.512,0.728,0.973,1.088,1.463c0.108,0.147,0.213,0.308,0.272,0.479c0.14,0.409-0.095,0.801-0.522,0.873
		c-0.614,0.104-1.129-0.132-1.577-0.525c-0.193-0.17-0.196-0.429-0.054-0.567c0.138-0.133,0.295-0.117,0.478,0.049
		c-0.289,0.344-0.254,0.545,0.17,0.738c0.203,0.092,0.438,0.157,0.659,0.158c0.411,0.002,0.579-0.336,0.348-0.676
		c-0.168-0.247-0.376-0.467-0.565-0.7c-0.194-0.24-0.397-0.474-0.575-0.726c-0.456-0.645-0.461-1.407-0.03-2.06
		c0.354-0.537,1.118-0.822,1.835-0.674c0.579,0.119,1.084,0.378,1.447,0.858c0.404,0.535,0.403,1.195,0.017,1.637
		c-0.36,0.412-1.062,0.515-1.612,0.202c-0.224-0.128-0.432-0.306-0.603-0.501c-0.208-0.238-0.198-0.594-0.031-0.843
		c0.152-0.227,0.49-0.379,0.772-0.273c0.238,0.089,0.467,0.241,0.649,0.418c0.079,0.077,0.075,0.307,0.024,0.433
		C32.337,4.841,32.156,4.871,31.931,4.794z"/>
	<path d="M21.091,7.13c0.091,0.451,0.287,0.559,0.708,0.361c0.188-0.088,0.376-0.207,0.518-0.356
		c0.279-0.292,0.154-0.661-0.245-0.726c-0.286-0.046-0.581-0.036-0.872-0.053c-0.335-0.019-0.672-0.024-1.004-0.063
		c-0.808-0.095-1.296-0.593-1.5-1.341c-0.193-0.704,0.106-1.288,0.632-1.745c0.476-0.414,1.039-0.63,1.682-0.587
		c0.612,0.041,1.096,0.43,1.215,0.971c0.117,0.531-0.176,1.089-0.725,1.37c-0.33,0.169-0.679,0.262-1.049,0.18
		c-0.559-0.124-0.757-0.757-0.368-1.176c0.221-0.239,0.509-0.379,0.829-0.325c0.144,0.024,0.311,0.171,0.376,0.306
		c0.044,0.091-0.071,0.259-0.143,0.381c-0.271-0.409-0.611-0.456-0.815-0.124c-0.152,0.248-0.048,0.573,0.221,0.689
		c0.357,0.154,0.969-0.045,1.288-0.418c0.302-0.354,0.348-0.802,0.067-1.166c-0.126-0.164-0.325-0.31-0.52-0.378
		c-0.811-0.279-1.885,0.205-2.239,0.98c-0.372,0.815,0.034,1.665,0.914,1.828c0.492,0.091,1.001,0.087,1.503,0.127
		c0.185,0.015,0.372,0.021,0.553,0.055c0.624,0.118,0.845,0.714,0.439,1.199c-0.346,0.413-0.813,0.614-1.337,0.683
		c-0.239,0.031-0.469-0.136-0.468-0.33C20.752,7.257,20.863,7.13,21.091,7.13z"/>
	<path fill="#FFFFFF" d="M43.294,26.568c-0.07,4.695-1.684,8.783-4.879,12.225c-1.911,2.058-4.205,3.566-6.832,4.567
		c-2.275,0.866-4.63,1.287-7.057,1.206c-4.274-0.144-8.082-1.558-11.357-4.332c-2.854-2.418-4.752-5.452-5.714-9.062
		c-0.705-2.648-0.774-5.33-0.218-8.011c0.762-3.675,2.511-6.825,5.231-9.412c2.766-2.631,6.053-4.254,9.822-4.834
		c4.713-0.725,9.101,0.219,13.067,2.868c3.711,2.479,6.159,5.908,7.334,10.228C43.096,23.5,43.294,25.02,43.294,26.568z
		 M24.732,8.979C24.196,9.03,23.238,9.064,22.3,9.222c-4.694,0.791-8.554,3.029-11.459,6.813c-2.91,3.791-4.072,8.097-3.507,12.842
		c0.392,3.3,1.666,6.255,3.779,8.813c3.245,3.929,7.45,6.072,12.517,6.52c1.898,0.168,3.78,0.006,5.629-0.45
		c3.633-0.895,6.725-2.709,9.221-5.506c2.784-3.12,4.272-6.783,4.484-10.954c0.105-2.074-0.181-4.108-0.827-6.085
		c-1.068-3.266-2.927-5.999-5.588-8.169C33.235,10.344,29.415,9.034,24.732,8.979z"/>
	<path d="M24.732,8.979c4.683,0.055,8.504,1.365,11.818,4.068c2.661,2.17,4.52,4.904,5.588,8.169
		c0.647,1.977,0.933,4.01,0.827,6.085c-0.212,4.171-1.701,7.833-4.484,10.954c-2.496,2.798-5.588,4.612-9.221,5.506
		c-1.85,0.455-3.732,0.617-5.629,0.45c-5.067-0.447-9.272-2.591-12.517-6.52C9,35.132,7.726,32.177,7.334,28.877
		c-0.564-4.745,0.597-9.051,3.507-12.842c2.904-3.784,6.765-6.022,11.459-6.813C23.238,9.064,24.196,9.03,24.732,8.979z
		 M31.519,33.29c-0.018-0.001-0.035-0.002-0.053-0.002c-0.018-0.057-0.038-0.114-0.054-0.172c-0.728-2.691-1.454-5.383-2.182-8.074
		c-0.141-0.521-0.142-0.521-0.693-0.516c-0.326,0.003-0.376,0.048-0.376,0.362c-0.001,3.492-0.001,6.984,0,10.476
		c0,0.324,0.071,0.392,0.389,0.381c0.274-0.009,0.331-0.079,0.331-0.419c-0.001-2.696-0.002-5.393-0.004-8.089
		c0-0.084,0-0.168,0-0.253c0.26,0.734,0.459,1.465,0.655,2.197c0.56,2.088,1.122,4.175,1.676,6.264
		c0.059,0.223,0.153,0.343,0.396,0.3c0.051-0.009,0.106-0.001,0.159-0.001c0.465-0.001,0.491-0.027,0.491-0.5
		c0-3.386,0-6.772,0-10.157c0-0.088-0.002-0.177-0.002-0.265c0-0.195-0.094-0.287-0.291-0.295c-0.363-0.015-0.441,0.052-0.441,0.414
		c-0.001,2.537-0.001,5.074-0.001,7.611C31.519,32.797,31.519,33.043,31.519,33.29z M37.431,35.745
		c0.376,0.004,0.469-0.081,0.424-0.361c-0.437-2.719-0.875-5.438-1.313-8.156c-0.135-0.837-0.269-1.674-0.416-2.508
		c-0.013-0.074-0.125-0.187-0.187-0.185c-0.269,0.01-0.536,0.054-0.803,0.093c-0.01,0.001-0.01,0.066-0.016,0.101
		c-0.194,1.185-0.389,2.369-0.581,3.554c-0.296,1.83-0.591,3.66-0.886,5.49c-0.087,0.54-0.172,1.081-0.259,1.621
		c-0.03,0.182,0.012,0.319,0.218,0.347c0.37,0.051,0.463,0.008,0.5-0.228c0.109-0.68,0.222-1.359,0.322-2.04
		c0.026-0.179,0.087-0.254,0.284-0.25c0.618,0.013,1.237,0.01,1.856,0.002c0.158-0.002,0.218,0.057,0.24,0.206
		c0.103,0.681,0.226,1.359,0.314,2.041C37.159,35.707,37.254,35.777,37.431,35.745z M16.698,30.154c0.002,0,0.004,0,0.006,0
		c0,1.299-0.019,2.599,0.006,3.898c0.019,0.983,0.864,1.708,1.902,1.689c0.93-0.017,1.743-0.825,1.744-1.753
		c0.005-2.563,0.005-5.127-0.002-7.69c-0.001-0.199-0.037-0.41-0.11-0.594c-0.332-0.84-1.187-1.316-2.039-1.156
		c-0.896,0.168-1.498,0.883-1.505,1.814C16.691,27.626,16.698,28.89,16.698,30.154z M12.037,30.129c0.001,0,0.001,0,0.002,0
		c0,1.282-0.007,2.564,0.002,3.846c0.007,0.996,0.839,1.774,1.867,1.766c0.985-0.008,1.789-0.807,1.795-1.786
		c0.003-0.504,0.003-1.008,0.002-1.512c-0.001-0.287-0.082-0.37-0.353-0.371c-0.289-0.001-0.375,0.082-0.377,0.376
		c-0.004,0.513,0.008,1.026-0.009,1.538c-0.019,0.575-0.52,1.037-1.099,1.04c-0.577,0.002-1.09-0.487-1.091-1.074
		c-0.006-2.555-0.012-5.111,0.011-7.666c0.002-0.243,0.16-0.525,0.328-0.718c0.31-0.356,0.744-0.404,1.169-0.234
		c0.438,0.175,0.681,0.52,0.686,1.006c0.005,0.495,0.001,0.99,0.006,1.485c0.003,0.281,0.09,0.364,0.364,0.364
		c0.297-0.001,0.363-0.063,0.366-0.351c0.002-0.186,0.003-0.371,0-0.557c-0.006-0.415,0.036-0.839-0.032-1.244
		c-0.165-0.982-1.03-1.604-2.02-1.505c-0.922,0.093-1.611,0.881-1.614,1.856C12.035,27.635,12.037,28.882,12.037,30.129z
		 M21.541,30.121h0.001c0,1.273-0.002,2.545,0.001,3.818c0.002,0.984,0.802,1.791,1.779,1.801c1.054,0.01,1.865-0.75,1.882-1.773
		c0.008-0.513,0.004-1.025,0.002-1.538c-0.001-0.3-0.061-0.356-0.359-0.356c-0.279,0-0.359,0.076-0.361,0.359
		c-0.004,0.513,0.006,1.026-0.01,1.538c-0.018,0.585-0.542,1.071-1.112,1.056c-0.593-0.016-1.083-0.494-1.084-1.082
		c-0.005-2.537-0.005-5.073-0.001-7.61c0.001-0.617,0.483-1.078,1.101-1.077c0.617,0.001,1.089,0.464,1.098,1.085
		c0.007,0.504,0.006,1.008,0.002,1.511c-0.002,0.232,0.095,0.341,0.332,0.338c0.312-0.003,0.392-0.057,0.393-0.324
		c0.003-0.513,0.006-1.025-0.002-1.538c-0.017-1.048-0.815-1.81-1.88-1.802c-0.981,0.007-1.78,0.825-1.781,1.828
		C21.54,27.611,21.541,28.866,21.541,30.121z M26.197,30.128c0,1.742-0.001,3.484,0.001,5.225c0,0.332,0.064,0.391,0.385,0.39
		c0.267-0.001,0.347-0.086,0.347-0.379c0.001-3.484,0.001-6.967,0-10.451c0-0.323-0.073-0.394-0.388-0.389
		c-0.284,0.005-0.343,0.067-0.343,0.404C26.196,26.662,26.197,28.395,26.197,30.128z M23.863,20.58c0,0.768,0.006,1.536-0.004,2.304
		c-0.003,0.208,0.06,0.286,0.272,0.267c0.193-0.017,0.388,0,0.582-0.004c0.442-0.009,0.806-0.339,0.81-0.776
		c0.012-1.183,0.012-2.366,0.002-3.548c-0.004-0.472-0.355-0.8-0.833-0.815c-0.185-0.006-0.371,0.009-0.556-0.004
		c-0.207-0.015-0.279,0.063-0.277,0.272C23.869,19.044,23.863,19.812,23.863,20.58z M19.186,20.55c0,0.778,0.005,1.556-0.004,2.334
		c-0.002,0.207,0.063,0.286,0.274,0.268c0.193-0.017,0.389,0,0.583-0.005c0.438-0.01,0.801-0.346,0.805-0.785
		c0.012-1.185,0.014-2.369,0.001-3.554c-0.005-0.455-0.365-0.783-0.824-0.8c-0.194-0.007-0.39,0.008-0.583-0.004
		c-0.203-0.013-0.257,0.075-0.255,0.265C19.191,19.029,19.186,19.79,19.186,20.55z M35.955,23.134c0-0.126,0.015-0.242-0.002-0.351
		c-0.246-1.525-0.499-3.049-0.74-4.575c-0.028-0.18-0.111-0.205-0.264-0.206c-0.15-0.001-0.215,0.039-0.241,0.2
		c-0.24,1.535-0.491,3.069-0.735,4.604c-0.017,0.107-0.002,0.219-0.002,0.343c0.105-0.005,0.181-0.009,0.269-0.013
		c0.023-0.123,0.043-0.235,0.066-0.346c0.052-0.257,0.023-0.613,0.181-0.743c0.161-0.133,0.505-0.038,0.768-0.056
		c0.178-0.013,0.257,0.057,0.278,0.23c0.038,0.305,0.088,0.608,0.134,0.914C35.774,23.134,35.858,23.134,35.955,23.134z
		 M23.359,23.133c0-0.099,0.012-0.186-0.002-0.269c-0.251-1.551-0.508-3.101-0.755-4.652c-0.024-0.153-0.074-0.199-0.229-0.213
		c-0.232-0.022-0.254,0.108-0.281,0.279c-0.242,1.525-0.487,3.05-0.735,4.574c-0.048,0.295-0.029,0.319,0.288,0.266
		c0.058-0.36,0.116-0.724,0.179-1.121c0.32,0,0.636-0.008,0.951,0.009c0.05,0.003,0.121,0.114,0.135,0.184
		c0.062,0.31,0.108,0.624,0.161,0.944C23.172,23.133,23.256,23.133,23.359,23.133z M18.632,20.311h-0.002c0-0.689,0-1.378,0-2.067
		c0-0.121,0.003-0.24-0.168-0.237c-0.172,0.003-0.159,0.126-0.159,0.244c0.001,0.61,0,1.219-0.001,1.829
		c0,0.733,0.003,1.466-0.002,2.2c-0.003,0.356-0.206,0.543-0.548,0.526c-0.302-0.015-0.468-0.215-0.468-0.585
		c-0.003-1.316-0.001-2.632-0.002-3.949c0-0.12,0.027-0.285-0.163-0.253c-0.063,0.011-0.148,0.156-0.149,0.24
		c-0.01,1.334-0.011,2.668-0.006,4.002c0.002,0.54,0.345,0.891,0.839,0.886c0.486-0.005,0.826-0.371,0.828-0.9
		C18.635,21.601,18.632,20.956,18.632,20.311z M28.721,22.246c-0.018,0.002-0.036,0.004-0.055,0.005
		c-0.131-0.81-0.263-1.619-0.394-2.429c-0.088-0.549-0.17-1.1-0.269-1.647c-0.012-0.065-0.114-0.113-0.175-0.17
		c-0.049,0.066-0.119,0.125-0.14,0.199c-0.02,0.071,0.008,0.157,0.02,0.235c0.174,1.063,0.348,2.126,0.522,3.19
		c0.082,0.503,0.165,1.005,0.247,1.504c0.158,0,0.287,0,0.427,0c0.074-0.448,0.147-0.882,0.219-1.317
		c0.073-0.444,0.144-0.889,0.216-1.333c0.12-0.741,0.241-1.481,0.358-2.222c0.018-0.113,0.042-0.26-0.135-0.245
		c-0.066,0.006-0.165,0.113-0.179,0.186c-0.129,0.721-0.244,1.445-0.362,2.169C28.922,20.996,28.822,21.621,28.721,22.246z
		 M13.93,20.571c-0.001,0-0.002,0-0.004,0c0,0.574,0,1.148,0,1.722c0,0.461,0.351,0.839,0.796,0.854
		c0.479,0.017,0.846-0.313,0.872-0.795c0.012-0.22,0.015-0.443-0.005-0.662c-0.007-0.078-0.094-0.15-0.144-0.224
		c-0.056,0.08-0.146,0.156-0.159,0.242c-0.026,0.173-0.006,0.352-0.01,0.529c-0.008,0.365-0.195,0.571-0.515,0.572
		c-0.315,0-0.511-0.212-0.513-0.576c-0.004-1.104-0.004-2.208,0-3.312c0.001-0.36,0.2-0.568,0.52-0.571
		c0.314-0.003,0.5,0.207,0.507,0.576c0.004,0.203-0.008,0.407,0.01,0.609c0.005,0.051,0.089,0.121,0.148,0.134
		c0.043,0.01,0.152-0.06,0.151-0.091c-0.019-0.375,0.002-0.764-0.098-1.119c-0.096-0.338-0.54-0.511-0.875-0.437
		c-0.417,0.091-0.673,0.401-0.68,0.854C13.924,19.44,13.93,20.006,13.93,20.571z M31.333,20.323c0-0.632-0.004-1.231,0.007-1.829
		c0.001-0.053,0.096-0.141,0.156-0.149c0.165-0.021,0.335-0.006,0.503-0.01c0.126-0.003,0.289,0.043,0.286-0.17
		c-0.003-0.195-0.155-0.156-0.273-0.158c-0.238-0.004-0.478,0.012-0.715-0.004c-0.229-0.016-0.307,0.06-0.305,0.297
		c0.01,1.511,0.005,3.022,0.007,4.532c0,0.101,0.018,0.203,0.027,0.304c0.424,0,0.819,0,1.211,0c0.076-0.29,0.066-0.307-0.201-0.317
		c-0.159-0.006-0.319-0.013-0.477-0.001c-0.178,0.014-0.231-0.062-0.228-0.23c0.008-0.406,0.002-0.813,0.002-1.219
		c0-0.234,0-0.468,0-0.718c0.21,0,0.379,0.016,0.543-0.007c0.079-0.011,0.147-0.098,0.22-0.151
		c-0.071-0.057-0.136-0.151-0.213-0.163C31.711,20.306,31.534,20.323,31.333,20.323z M30.414,23.137
		c0.008-0.132,0.019-0.236,0.019-0.341c0.002-1.103,0.002-2.207,0.003-3.31c0-0.415-0.002-0.83,0-1.245
		c0.001-0.126-0.01-0.236-0.174-0.234c-0.166,0.003-0.17,0.12-0.165,0.242c0,0.009,0,0.018,0,0.026c0,1.527,0,3.054,0.002,4.581
		c0,0.093,0.015,0.185,0.023,0.28C30.228,23.137,30.305,23.137,30.414,23.137z M33.524,20.272c0,0,0.001,0,0.001,0
		c0-0.681,0.005-1.362-0.007-2.042c-0.001-0.075-0.098-0.148-0.151-0.222c-0.056,0.07-0.122,0.134-0.165,0.211
		c-0.022,0.041-0.004,0.104-0.004,0.157c-0.001,1.273,0,2.547-0.003,3.82c-0.001,0.368-0.091,0.521-0.393,0.607
		c-0.16,0.046-0.22,0.133-0.156,0.26c0.027,0.052,0.182,0.077,0.263,0.055c0.374-0.098,0.605-0.409,0.611-0.829
		C33.531,21.616,33.524,20.944,33.524,20.272z M16.086,23.121c0.236,0.072,0.302-0.009,0.302-0.21
		c-0.004-1.553-0.001-3.106-0.001-4.66c0-0.044,0.014-0.102-0.008-0.129c-0.038-0.048-0.1-0.107-0.151-0.107
		c-0.052,0-0.118,0.057-0.152,0.106c-0.025,0.037-0.009,0.103-0.009,0.156c0,1.527,0,3.054,0.001,4.58
		C16.068,22.944,16.08,23.03,16.086,23.121z"/>
	<path fill="#FFFFFF" d="M31.519,33.29c0-0.246,0-0.493,0-0.739c0-2.537,0-5.074,0.001-7.611c0-0.362,0.078-0.429,0.441-0.414
		c0.197,0.008,0.291,0.101,0.291,0.295c0,0.088,0.002,0.177,0.002,0.265c0,3.386,0,6.772,0,10.157c0,0.474-0.026,0.5-0.491,0.5
		c-0.053,0-0.107-0.008-0.159,0.001c-0.243,0.043-0.337-0.077-0.396-0.3c-0.553-2.089-1.115-4.176-1.676-6.264
		c-0.196-0.732-0.395-1.463-0.655-2.197c0,0.084,0,0.168,0,0.253c0.001,2.696,0.003,5.393,0.004,8.089
		c0,0.341-0.058,0.41-0.331,0.419c-0.317,0.011-0.389-0.056-0.389-0.381c-0.001-3.492,0-6.984,0-10.476
		c0-0.314,0.05-0.359,0.376-0.362c0.551-0.005,0.552-0.005,0.693,0.516c0.728,2.691,1.455,5.383,2.182,8.074
		c0.016,0.058,0.036,0.115,0.054,0.172C31.483,33.288,31.501,33.289,31.519,33.29z"/>
	<path fill="#FFFFFF" d="M37.431,35.745c-0.177,0.032-0.272-0.038-0.302-0.274c-0.088-0.683-0.211-1.361-0.314-2.041
		c-0.023-0.149-0.082-0.208-0.24-0.206c-0.619,0.008-1.238,0.012-1.856-0.002c-0.197-0.004-0.257,0.071-0.284,0.25
		c-0.101,0.681-0.213,1.36-0.322,2.04c-0.038,0.235-0.13,0.279-0.5,0.228c-0.206-0.028-0.248-0.165-0.218-0.347
		c0.088-0.54,0.172-1.081,0.259-1.621c0.295-1.83,0.589-3.66,0.886-5.49c0.192-1.185,0.387-2.369,0.581-3.554
		c0.006-0.035,0.006-0.099,0.016-0.101c0.267-0.038,0.535-0.083,0.803-0.093c0.062-0.002,0.174,0.111,0.187,0.185
		c0.147,0.835,0.281,1.671,0.416,2.508c0.438,2.719,0.876,5.437,1.313,8.156C37.9,35.664,37.806,35.749,37.431,35.745z
		 M35.656,26.345c-0.02,0.001-0.039,0.002-0.059,0.003c-0.328,2.036-0.655,4.072-0.986,6.131c0.69,0,1.348,0,2.035,0
		C36.314,30.423,35.985,28.384,35.656,26.345z"/>
	<path fill="#FFFFFF" d="M16.698,30.154c0-1.264-0.007-2.528,0.002-3.792c0.006-0.932,0.609-1.646,1.505-1.814
		c0.853-0.16,1.707,0.315,2.039,1.156c0.073,0.184,0.11,0.395,0.11,0.594c0.007,2.563,0.007,5.127,0.002,7.69
		c-0.002,0.928-0.814,1.736-1.744,1.753c-1.038,0.019-1.883-0.705-1.902-1.689c-0.026-1.299-0.006-2.598-0.006-3.898
		C16.702,30.154,16.7,30.154,16.698,30.154z M19.631,30.155c0-1.246,0.001-2.492,0-3.738c-0.001-0.674-0.445-1.149-1.076-1.159
		c-0.655-0.01-1.13,0.455-1.132,1.132c-0.007,1.997-0.007,3.994-0.008,5.992c0,0.521-0.009,1.043,0.01,1.564
		c0.022,0.615,0.53,1.094,1.117,1.081c0.604-0.013,1.088-0.513,1.089-1.134C19.633,32.647,19.631,31.401,19.631,30.155z"/>
	<path fill="#FFFFFF" d="M12.037,30.129c0-1.247-0.003-2.493,0.001-3.74c0.003-0.975,0.692-1.763,1.614-1.856
		c0.99-0.1,1.855,0.522,2.02,1.505c0.068,0.405,0.026,0.829,0.032,1.244c0.003,0.186,0.002,0.371,0,0.557
		c-0.003,0.288-0.069,0.35-0.366,0.351c-0.274,0.001-0.361-0.083-0.364-0.364c-0.005-0.495-0.001-0.99-0.006-1.485
		c-0.005-0.486-0.248-0.832-0.686-1.006c-0.425-0.169-0.859-0.122-1.169,0.234c-0.168,0.193-0.325,0.475-0.328,0.718
		c-0.023,2.555-0.017,5.111-0.011,7.666c0.001,0.587,0.513,1.077,1.091,1.074c0.579-0.002,1.079-0.465,1.099-1.04
		c0.017-0.512,0.005-1.026,0.009-1.538c0.002-0.295,0.088-0.377,0.377-0.376c0.271,0.001,0.352,0.084,0.353,0.371
		c0.001,0.504,0.001,1.008-0.002,1.512c-0.005,0.979-0.81,1.779-1.795,1.786c-1.027,0.008-1.86-0.77-1.867-1.766
		c-0.009-1.282-0.002-2.564-0.002-3.846C12.038,30.129,12.038,30.129,12.037,30.129z"/>
	<path fill="#FFFFFF" d="M21.541,30.121c0-1.255-0.001-2.51,0-3.765c0.001-1.003,0.8-1.821,1.781-1.828
		c1.065-0.008,1.863,0.754,1.88,1.802c0.008,0.512,0.005,1.025,0.002,1.538c-0.002,0.267-0.081,0.321-0.393,0.324
		c-0.238,0.002-0.334-0.107-0.332-0.338c0.004-0.504,0.005-1.008-0.002-1.511c-0.009-0.621-0.481-1.084-1.098-1.085
		c-0.618-0.001-1.1,0.46-1.101,1.077c-0.004,2.537-0.004,5.073,0.001,7.61c0.001,0.588,0.491,1.066,1.084,1.082
		c0.571,0.015,1.094-0.471,1.112-1.056c0.016-0.512,0.006-1.025,0.01-1.538c0.002-0.283,0.082-0.36,0.361-0.359
		c0.298,0,0.358,0.056,0.359,0.356c0.002,0.513,0.006,1.025-0.002,1.538c-0.016,1.023-0.827,1.783-1.882,1.773
		c-0.977-0.009-1.777-0.817-1.779-1.801c-0.002-1.273-0.001-2.545-0.001-3.818H21.541z"/>
	<path fill="#FFFFFF" d="M26.197,30.128c0-1.733-0.001-3.466,0.001-5.199c0-0.336,0.059-0.399,0.343-0.404
		c0.315-0.005,0.388,0.066,0.388,0.389c0,3.484,0,6.967,0,10.451c0,0.293-0.08,0.378-0.347,0.379
		c-0.321,0.001-0.385-0.058-0.385-0.39C26.196,33.611,26.197,31.869,26.197,30.128z"/>
	<path fill="#FFFFFF" d="M23.863,20.58c0-0.768,0.006-1.536-0.004-2.304c-0.003-0.209,0.069-0.287,0.277-0.272
		c0.184,0.013,0.371-0.002,0.556,0.004c0.477,0.016,0.829,0.343,0.833,0.815c0.01,1.183,0.01,2.366-0.002,3.548
		c-0.004,0.437-0.368,0.767-0.81,0.776c-0.194,0.004-0.39-0.014-0.582,0.004c-0.212,0.019-0.274-0.059-0.272-0.267
		C23.869,22.116,23.863,21.348,23.863,20.58z M24.187,22.812c0.199,0,0.356,0.006,0.512-0.001c0.327-0.016,0.504-0.194,0.505-0.521
		c0.004-1.139,0.005-2.278,0.001-3.417c-0.001-0.328-0.199-0.52-0.529-0.534c-0.071-0.003-0.142,0.007-0.212-0.003
		c-0.222-0.031-0.285,0.061-0.283,0.28c0.009,1.192,0.004,2.384,0.004,3.576C24.187,22.385,24.187,22.578,24.187,22.812z"/>
	<path fill="#FFFFFF" d="M19.186,20.55c0-0.76,0.004-1.521-0.003-2.281c-0.002-0.191,0.052-0.279,0.255-0.265
		c0.194,0.013,0.389-0.003,0.583,0.004c0.46,0.017,0.82,0.345,0.824,0.8c0.013,1.185,0.011,2.369-0.001,3.554
		c-0.004,0.439-0.368,0.774-0.805,0.785c-0.194,0.005-0.39-0.012-0.583,0.005c-0.211,0.018-0.276-0.061-0.274-0.268
		C19.192,22.106,19.186,21.328,19.186,20.55z M19.506,20.573c0,0.6-0.003,1.201,0.001,1.801c0.003,0.506-0.071,0.437,0.458,0.437
		c0.36,0,0.562-0.186,0.563-0.521c0.004-1.139,0.004-2.278,0-3.416c-0.001-0.307-0.204-0.513-0.507-0.533
		c-0.097-0.006-0.195,0.006-0.291-0.005c-0.176-0.02-0.229,0.053-0.227,0.225C19.51,19.232,19.506,19.902,19.506,20.573z"/>
	<path fill="#FFFFFF" d="M35.955,23.134c-0.097,0-0.181,0-0.288,0c-0.045-0.306-0.096-0.609-0.134-0.914
		c-0.022-0.173-0.1-0.243-0.278-0.23c-0.263,0.019-0.608-0.077-0.768,0.056c-0.158,0.131-0.129,0.486-0.181,0.743
		c-0.023,0.111-0.043,0.223-0.066,0.346c-0.088,0.004-0.165,0.008-0.269,0.013c0-0.124-0.015-0.236,0.002-0.343
		c0.244-1.535,0.495-3.069,0.735-4.604c0.025-0.161,0.091-0.201,0.241-0.2c0.153,0.001,0.236,0.025,0.264,0.206
		c0.241,1.526,0.494,3.05,0.74,4.575C35.97,22.892,35.955,23.007,35.955,23.134z M34.994,18.931
		c-0.022-0.001-0.043-0.002-0.065-0.003c-0.144,0.899-0.289,1.797-0.437,2.721c0.319,0,0.604,0,0.934,0
		C35.28,20.732,35.137,19.832,34.994,18.931z"/>
	<path fill="#FFFFFF" d="M23.359,23.133c-0.103,0-0.187,0-0.288,0c-0.053-0.32-0.098-0.634-0.161-0.944
		c-0.014-0.07-0.085-0.182-0.135-0.184c-0.315-0.017-0.631-0.009-0.951-0.009c-0.063,0.397-0.122,0.761-0.179,1.121
		c-0.317,0.053-0.336,0.029-0.288-0.266c0.247-1.524,0.493-3.049,0.735-4.574c0.027-0.171,0.049-0.301,0.281-0.279
		c0.155,0.015,0.205,0.06,0.229,0.213c0.247,1.551,0.504,3.101,0.755,4.652C23.37,22.947,23.359,23.034,23.359,23.133z
		 M21.881,21.668c0.304,0,0.55,0.009,0.794-0.008c0.046-0.003,0.128-0.119,0.12-0.172c-0.131-0.853-0.273-1.705-0.413-2.557
		c-0.019-0.001-0.037-0.002-0.056-0.004C22.181,19.825,22.035,20.722,21.881,21.668z"/>
	<path fill="#FFFFFF" d="M18.632,20.311c0,0.645,0.002,1.29-0.001,1.935c-0.002,0.53-0.342,0.896-0.828,0.9
		c-0.494,0.005-0.837-0.346-0.839-0.886c-0.005-1.334-0.004-2.668,0.006-4.002c0.001-0.084,0.085-0.23,0.149-0.24
		c0.19-0.032,0.163,0.133,0.163,0.253c0.001,1.316-0.001,2.632,0.002,3.949c0.001,0.37,0.166,0.57,0.468,0.585
		c0.343,0.017,0.546-0.17,0.548-0.526c0.005-0.733,0.002-1.466,0.002-2.2c0-0.61,0.001-1.219,0.001-1.829
		c0-0.118-0.013-0.241,0.159-0.244c0.171-0.003,0.168,0.117,0.168,0.237c-0.001,0.689,0,1.378,0,2.067H18.632z"/>
	<path fill="#FFFFFF" d="M28.721,22.246c0.101-0.625,0.201-1.25,0.303-1.875c0.118-0.723,0.232-1.447,0.362-2.169
		c0.013-0.074,0.112-0.181,0.179-0.186c0.176-0.015,0.153,0.132,0.135,0.245c-0.117,0.741-0.239,1.481-0.358,2.222
		c-0.072,0.444-0.143,0.889-0.216,1.333c-0.071,0.435-0.144,0.87-0.219,1.317c-0.14,0-0.269,0-0.427,0
		c-0.082-0.499-0.164-1.002-0.247-1.504c-0.174-1.063-0.349-2.126-0.522-3.19c-0.013-0.078-0.04-0.164-0.02-0.235
		c0.021-0.074,0.091-0.133,0.14-0.199c0.06,0.056,0.163,0.105,0.175,0.17c0.099,0.547,0.181,1.098,0.269,1.647
		c0.13,0.81,0.262,1.619,0.394,2.429C28.684,22.25,28.703,22.248,28.721,22.246z"/>
	<path fill="#FFFFFF" d="M13.93,20.571c0-0.565-0.007-1.13,0.002-1.696c0.007-0.453,0.263-0.763,0.68-0.854
		c0.334-0.073,0.779,0.099,0.875,0.437c0.1,0.355,0.079,0.744,0.098,1.119c0.002,0.03-0.107,0.101-0.151,0.091
		c-0.059-0.013-0.143-0.083-0.148-0.134c-0.018-0.202-0.006-0.406-0.01-0.609c-0.007-0.369-0.193-0.579-0.507-0.576
		c-0.32,0.003-0.518,0.211-0.52,0.571c-0.004,1.104-0.004,2.208,0,3.312c0.001,0.364,0.198,0.577,0.513,0.576
		c0.319,0,0.507-0.206,0.515-0.572c0.004-0.177-0.016-0.356,0.01-0.529c0.013-0.087,0.104-0.162,0.159-0.242
		c0.05,0.074,0.137,0.146,0.144,0.224c0.02,0.219,0.017,0.441,0.005,0.662c-0.026,0.482-0.394,0.812-0.872,0.795
		c-0.445-0.015-0.796-0.393-0.796-0.854c0-0.574,0-1.148,0-1.722C13.928,20.571,13.929,20.571,13.93,20.571z"/>
	<path fill="#FFFFFF" d="M31.333,20.323c0.201,0,0.378-0.017,0.548,0.008c0.077,0.011,0.142,0.106,0.213,0.163
		c-0.073,0.053-0.141,0.139-0.22,0.151c-0.163,0.024-0.332,0.007-0.543,0.007c0,0.25,0,0.484,0,0.718
		c0,0.406,0.006,0.813-0.002,1.219c-0.003,0.169,0.05,0.244,0.228,0.23c0.158-0.012,0.318-0.005,0.477,0.001
		c0.267,0.01,0.277,0.028,0.201,0.317c-0.391,0-0.787,0-1.211,0c-0.009-0.101-0.027-0.203-0.027-0.304
		c-0.002-1.511,0.003-3.022-0.007-4.532c-0.002-0.237,0.076-0.313,0.305-0.297c0.237,0.016,0.477,0,0.715,0.004
		c0.117,0.002,0.27-0.037,0.273,0.158c0.003,0.213-0.16,0.167-0.286,0.17c-0.168,0.004-0.337-0.011-0.503,0.01
		c-0.06,0.008-0.155,0.096-0.156,0.149C31.329,19.092,31.333,19.69,31.333,20.323z"/>
	<path fill="#FFFFFF" d="M30.414,23.137c-0.109,0-0.186,0-0.291,0c-0.008-0.095-0.023-0.188-0.023-0.28
		c-0.002-1.527-0.002-3.054-0.002-4.581c0-0.009,0-0.018,0-0.026c-0.005-0.122-0.001-0.239,0.165-0.242
		c0.164-0.003,0.175,0.108,0.174,0.234c-0.002,0.415,0,0.83,0,1.245c-0.001,1.103-0.001,2.207-0.003,3.31
		C30.433,22.9,30.422,23.005,30.414,23.137z"/>
	<path fill="#FFFFFF" d="M33.524,20.272c0,0.672,0.007,1.344-0.002,2.016c-0.006,0.42-0.237,0.732-0.611,0.829
		c-0.081,0.021-0.237-0.003-0.263-0.055c-0.065-0.126-0.004-0.214,0.156-0.26c0.302-0.086,0.392-0.239,0.393-0.607
		c0.003-1.273,0.002-2.547,0.003-3.82c0-0.053-0.018-0.116,0.004-0.157c0.043-0.077,0.109-0.142,0.165-0.211
		c0.053,0.074,0.15,0.147,0.151,0.222c0.012,0.681,0.007,1.362,0.007,2.042C33.525,20.272,33.525,20.272,33.524,20.272z"/>
	<path fill="#FFFFFF" d="M16.086,23.121c-0.006-0.091-0.018-0.177-0.018-0.264c-0.001-1.527-0.001-3.054-0.001-4.58
		c0-0.053-0.016-0.119,0.009-0.156c0.033-0.05,0.1-0.106,0.152-0.106c0.052,0,0.113,0.059,0.151,0.107
		c0.022,0.028,0.008,0.085,0.008,0.129c0,1.553-0.003,3.107,0.001,4.66C16.389,23.112,16.323,23.193,16.086,23.121z"/>
	<path d="M35.656,26.345c0.329,2.039,0.658,4.079,0.989,6.134c-0.687,0-1.344,0-2.035,0c0.331-2.059,0.659-4.095,0.986-6.131
		C35.617,26.346,35.636,26.346,35.656,26.345z"/>
	<path d="M19.631,30.155c0,1.246,0.002,2.492-0.001,3.738c-0.001,0.621-0.486,1.121-1.089,1.134
		c-0.587,0.013-1.095-0.467-1.117-1.081c-0.019-0.521-0.01-1.043-0.01-1.564c0.001-1.997,0.001-3.994,0.008-5.992
		c0.002-0.677,0.478-1.142,1.132-1.132c0.631,0.01,1.075,0.485,1.076,1.159C19.632,27.662,19.631,28.908,19.631,30.155z"/>
	<path d="M24.187,22.812c0-0.234,0-0.427,0-0.62c0-1.192,0.005-2.384-0.004-3.576c-0.002-0.219,0.061-0.312,0.283-0.28
		c0.069,0.01,0.141,0,0.212,0.003c0.329,0.014,0.528,0.206,0.529,0.534c0.003,1.139,0.003,2.278-0.001,3.417
		c-0.001,0.327-0.178,0.505-0.505,0.521C24.542,22.818,24.385,22.812,24.187,22.812z"/>
	<path d="M19.506,20.573c0-0.671,0.005-1.342-0.003-2.013c-0.002-0.173,0.051-0.245,0.227-0.225
		c0.096,0.011,0.194-0.002,0.291,0.005c0.303,0.02,0.506,0.226,0.507,0.533c0.004,1.139,0.004,2.278,0,3.416
		c-0.001,0.336-0.203,0.521-0.563,0.521c-0.529,0.001-0.455,0.069-0.458-0.437C19.503,21.774,19.506,21.174,19.506,20.573z"/>
	<path d="M34.994,18.931c0.143,0.901,0.286,1.802,0.432,2.718c-0.33,0-0.615,0-0.934,0c0.149-0.924,0.293-1.823,0.437-2.721
		C34.951,18.929,34.973,18.93,34.994,18.931z"/>
	<path d="M21.881,21.668c0.154-0.946,0.3-1.843,0.446-2.74c0.019,0.001,0.037,0.002,0.056,0.004c0.14,0.852,0.282,1.703,0.413,2.557
		c0.008,0.053-0.074,0.168-0.12,0.172C22.431,21.677,22.185,21.668,21.881,21.668z"/>
</g>
</svg>
